<?xml version="1.0" encoding="UTF-8"?>
<svg version="1.1" xmlns="http://www.w3.org/2000/svg" width="1280" height="1110">
<path d="M0 0 C10.38130816 10.66967783 11.70376825 22.64005116 11.63476562 37.0168457 C11.63888022 38.46371893 11.6443463 39.91058883 11.65104675 41.35745239 C11.66269667 44.45229139 11.66528314 47.54695241 11.66069031 50.64180946 C11.65382727 55.54874735 11.66984021 60.45545513 11.68908691 65.36235046 C11.72680576 75.78322137 11.73971585 86.20407132 11.75 96.625 C11.76110443 107.86896852 11.77666015 119.11282917 11.82071257 130.35672444 C11.83892725 135.22095633 11.84301243 140.08492072 11.83577728 144.94917834 C11.83424098 147.99164248 11.84512922 151.03397622 11.85915565 154.07640457 C11.86311283 155.47184058 11.86211254 156.86730234 11.85538292 158.26272774 C11.77524853 176.28342574 15.59210089 194.40660334 27.91796875 208.17578125 C39.1875022 219.01279529 54.97641247 223.83630704 70.31884766 223.66430664 C84.74485096 223.16548935 98.81918706 217.40164854 109.25 207.3125 C123.05051594 191.53251612 124.4000089 171.0923246 124.3918457 151.14892578 C124.39488419 149.74821871 124.39840753 148.34751261 124.40237427 146.94680786 C124.41020989 143.94912739 124.4153878 140.95145852 124.41866493 137.95376968 C124.4246229 133.20293877 124.44120694 128.45218087 124.46000671 123.7013855 C124.46634254 122.06861309 124.47266818 120.43584065 124.47898388 118.80306816 C124.48214969 117.98587044 124.4853155 117.16867271 124.48857725 116.32671142 C124.530503 105.28178506 124.56362832 94.23689527 124.57592773 83.19189453 C124.5843335 75.71970569 124.60691007 68.24770088 124.6452834 60.77560413 C124.6649465 56.8316023 124.67748101 52.8878749 124.67244911 48.94382095 C124.66777 45.23189448 124.68178353 41.520488 124.70946121 37.80866623 C124.71955566 35.81676246 124.71017832 33.82478891 124.69996643 31.83288574 C124.82518392 19.64339806 127.32793866 10.20087453 135.9375 1.37890625 C144.37237596 -6.15833933 153.37553342 -6.34423898 164.19873047 -5.87109375 C171.30323705 -5.23522265 177.37947425 -1.77941328 182.25 3.3125 C187.55792036 10.81504127 190.49405311 17.78722808 190.51069641 27.10064697 C190.51452196 27.74659057 190.51834751 28.39253417 190.52228898 29.05805182 C190.53253317 31.20317421 190.52864317 33.34802458 190.5246582 35.49316406 C190.52900989 37.03970586 190.53419456 38.58624551 190.54014587 40.13278198 C190.55350962 44.32361659 190.55411662 48.51436084 190.55158257 52.70521259 C190.55050937 56.21803433 190.55540602 59.73083806 190.560188 63.24365592 C190.5712778 71.54786774 190.57172596 79.85203435 190.56567383 88.15625 C190.55965732 96.67834539 190.57188688 105.20027471 190.5932439 113.72234178 C190.61096933 121.06965114 190.61684349 128.41690821 190.61360615 135.76423812 C190.61180776 140.13828399 190.61428139 144.51221187 190.62832069 148.8862381 C190.7277649 182.79459908 188.98546694 215.71400008 165.25 242.3125 C164.58742188 243.116875 163.92484375 243.92125 163.2421875 244.75 C142.1961895 269.60136295 109.58289258 283.30352035 77.62280273 285.98583984 C43.38237483 288.23046824 9.24363346 277.95846854 -16.75 255.3125 C-38.47869025 236.00408465 -51.27404135 209.21722389 -53.75 180.3125 C-54.2669995 169.23335592 -54.17899273 158.13389289 -54.15297651 147.0453949 C-54.145282 142.73045309 -54.15245126 138.41552867 -54.15713501 134.10058594 C-54.16255979 126.8689423 -54.15548295 119.63739124 -54.14111328 112.40576172 C-54.12474349 104.07183493 -54.1301198 95.73812789 -54.1465925 87.40420628 C-54.16024235 80.20708886 -54.16211145 73.01003722 -54.15427649 65.81291103 C-54.14962549 61.53208756 -54.1489046 57.25136719 -54.15888596 52.97055054 C-54.16760645 48.95164197 -54.16144195 44.93301528 -54.14420319 40.91413689 C-54.14026744 39.4480937 -54.14132187 37.98202641 -54.14799118 36.51599312 C-54.20080059 23.71993116 -52.99035396 12.0345084 -43.9296875 2.37109375 C-31.63702484 -9.17436785 -13.83804846 -8.49152974 0 0 Z " fill="#0E5351" transform="translate(582.75,364.6875)"/>
<path d="M0 0 C6.37936765 4.49171163 9.59499792 9.94353735 11.19140625 17.54296875 C12.0207783 25.0073172 10.18640149 31.58423742 5.61328125 37.62890625 C1.33871933 42.19228992 -3.02749628 44.49878917 -9.0859375 46.171875 C-21.89661192 49.71353064 -30.49707204 56.44643167 -39.80859375 65.54296875 C-40.44410156 66.11660156 -41.07960938 66.69023437 -41.734375 67.28125 C-53.99662031 78.60699925 -65.86947475 96.63896124 -71.14453125 112.41796875 C-73.49592649 116.83373446 -76.4184715 117.76232984 -80.93359375 119.54296875 C-87.698303 122.46840195 -93.34483821 125.50466959 -98.80859375 130.54296875 C-99.47890625 131.12304688 -100.14921875 131.703125 -100.83984375 132.30078125 C-111.34502873 141.95747052 -118.99977496 156.28873328 -119.94946289 170.67724609 C-120.59664283 186.99137102 -118.84042336 199.58152257 -110.00390625 213.60546875 C-108.80859375 216.54296875 -108.80859375 216.54296875 -109.37109375 219.37890625 C-109.84546875 220.42304687 -110.31984375 221.4671875 -110.80859375 222.54296875 C-111.08171387 223.18008789 -111.35483398 223.81720703 -111.63623047 224.47363281 C-119.44039117 242.46528574 -129.29432623 259.42808001 -141.80859375 274.54296875 C-142.25589844 275.09033691 -142.70320312 275.63770508 -143.1640625 276.20166016 C-163.25389071 300.75823939 -191.50673927 324.28470483 -224.3515625 327.81640625 C-232.59179475 328.13287012 -238.73357117 326.21803541 -244.91796875 320.640625 C-250.92643331 314.17283567 -252.35044069 308.39292097 -252.1875 299.6484375 C-251.41943958 293.35350933 -248.63588086 287.82965996 -243.87109375 283.60546875 C-238.52244131 280.00331507 -233.51730305 278.10916732 -227.24609375 276.79296875 C-214.46382203 273.81510464 -204.484054 267.29282443 -194.80859375 258.54296875 C-193.97714844 257.79402344 -193.14570312 257.04507812 -192.2890625 256.2734375 C-163.61161929 229.04115678 -150.71507197 189.39343138 -139.80859375 152.54296875 C-123.86224107 98.6696155 -99.67062496 36.4841063 -47.86328125 7.2578125 C-33.60893219 -0.39260967 -15.3693821 -8.80717401 0 0 Z " fill="#0E5351" transform="translate(1099.80859375,310.45703125)"/>
<path d="M0 0 C4.97800394 3.59627661 8.62871892 8.43217249 10.0546875 14.484375 C11.09126993 23.18711104 10.30942895 30.31289163 5.0546875 37.484375 C0.06187918 43.46520607 -6.8771132 44.74756811 -14.09301758 46.59985352 C-41.05349418 53.62326408 -59.28319832 75.74291898 -73.0078125 98.671875 C-86.3772675 121.69949692 -94.82249877 146.55268202 -102.06594849 172.0760498 C-113.45910112 212.18383982 -129.10203599 252.74303978 -156.9453125 284.484375 C-157.69554687 285.34417969 -158.44578125 286.20398438 -159.21875 287.08984375 C-161.43047468 289.58463899 -163.67766968 292.04040553 -165.9453125 294.484375 C-166.84443359 295.48210937 -166.84443359 295.48210937 -167.76171875 296.5 C-182.63309094 312.30284043 -205.23718866 326.04528855 -227.1953125 327.734375 C-234.17175887 327.26927858 -240.555793 325.01647095 -245.9453125 320.484375 C-250.99740843 314.18328869 -253.27254546 307.66434018 -252.9453125 299.609375 C-252.01171374 292.79095712 -249.07393937 287.11603587 -243.78125 282.6640625 C-239.23345504 279.71614329 -234.70568999 278.02228203 -229.5078125 276.546875 C-218.30124379 273.33748208 -210.23948547 266.42042306 -201.9453125 258.484375 C-201.35363281 257.95585938 -200.76195312 257.42734375 -200.15234375 256.8828125 C-187.1080709 244.7990443 -177.04983757 227.19007619 -170.0078125 211.04296875 C-168.0063967 206.99385282 -165.68191214 205.94462784 -161.3828125 204.484375 C-144.64950511 198.22194891 -133.10056735 185.65079293 -125.625 169.66015625 C-119.0540833 152.98949721 -119.67291618 135.46918201 -126.3828125 118.984375 C-127.97845482 115.29159191 -127.97845482 115.29159191 -130.11962891 111.90673828 C-131.95139381 109.32801128 -133.12305529 107.61047346 -132.61499023 104.39160156 C-131.70867779 101.94726377 -130.63352531 99.67998471 -129.4453125 97.359375 C-129.02531982 96.4919165 -128.60532715 95.62445801 -128.17260742 94.73071289 C-126.80559999 91.95811014 -125.38605731 89.21932361 -123.9453125 86.484375 C-123.48463379 85.60281738 -123.02395508 84.72125977 -122.54931641 83.81298828 C-112.69508166 65.21014946 -100.66155295 48.52476172 -85.9453125 33.484375 C-85.26339844 32.7521875 -84.58148438 32.02 -83.87890625 31.265625 C-66.00864475 12.46267762 -25.76044567 -15.03396502 0 0 Z " fill="#0E5351" transform="translate(413.9453125,338.515625)"/>
<path d="M0 0 C6.06454323 5.15258184 8.94042326 10.98368214 10.55859375 18.64453125 C15.81483441 43.03218199 34.53737304 61.25481824 54.74365234 74.51318359 C81.44767563 91.51667417 110.92436821 101.20654512 141.1472168 109.94677734 C162.09900962 116.02457957 182.33881216 123.52589093 202 133 C202.71671875 133.34466309 203.4334375 133.68932617 204.171875 134.04443359 C221.78914733 142.64508807 238.67162717 153.57699139 253 167 C253.60005859 167.55768066 254.20011719 168.11536133 254.81835938 168.68994141 C272.62069155 185.39890915 290.21597744 207.43860602 292.02734375 232.890625 C291.92419298 240.84797007 289.10560025 246.94621684 284 253 C278.06454544 257.82255683 272.20552105 259.5091344 264.65234375 259.3046875 C257.96341294 258.5362978 252.68226866 256.18034134 248.0625 251.25 C245.02307657 247.39390906 243.40196254 243.66486347 242 239 C233.5234235 211.57827503 209.0747038 194.08337378 184.82470703 181.00585938 C178.57054432 177.64781493 178.57054432 177.64781493 172 175 C170.87082466 172.59189132 169.88875135 170.22693943 168.9375 167.75 C161.56691405 149.88288314 148.69508606 138.4901932 131 131 C118.08472527 126.0848752 100.89314412 125.90886104 88 131 C84.45186753 132.69510186 80.94868416 134.47443832 77.5168457 136.39453125 C74.8229896 137.85661162 72.6807513 139.00548109 69.57421875 138.98046875 C65.71230244 137.5095416 61.9766742 135.84761831 58.25 134.0625 C57.41162598 133.66135986 56.57325195 133.26021973 55.70947266 132.84692383 C36.91651157 123.7053111 19.21547429 112.37638563 4 98 C2.64991542 96.84935973 1.29588411 95.7033304 -0.0625 94.5625 C-20.87323025 76.29576683 -37.33197584 48.84937576 -40 21 C-39.84889062 13.49490055 -36.84708849 7.64339588 -32 2 C-22.47021137 -5.74295326 -10.48607063 -6.26349185 0 0 Z " fill="#7AA424" transform="translate(524,702)"/>
<path d="M0 0 C6.66820843 4.92235022 8.8124467 11.13764671 11.20019531 18.80957031 C19.85959833 45.99982646 47.11702052 63.56850435 71.23950195 76.03759766 C72.09934692 76.47918213 72.09934692 76.47918213 72.9765625 76.9296875 C74.02328125 77.47625 75.07 78.0228125 76.1484375 78.5859375 C77.52128906 79.2665625 77.52128906 79.2665625 78.921875 79.9609375 C81.77431445 82.04271787 82.36477248 83.77546602 83.5234375 87.0859375 C89.6309132 102.83980006 100.18686014 113.91537742 115.1484375 121.5859375 C131.97154049 128.91452758 149.22785778 129.55872262 166.52734375 123.37890625 C172.29000618 121.03951595 172.29000618 121.03951595 177.61328125 117.8671875 C181.00033892 116.15539256 182.52131423 116.56244232 186.1484375 117.5859375 C188.71821151 118.59792815 191.16411359 119.64697084 193.6484375 120.8359375 C194.37474365 121.18237305 195.1010498 121.52880859 195.84936523 121.88574219 C217.04401295 132.25063445 236.18459532 145.21440824 253.1484375 161.5859375 C254.53289062 162.87564453 254.53289062 162.87564453 255.9453125 164.19140625 C273.68559522 181.15492518 289.53853837 205.67326402 292.1484375 230.5859375 C292.22964844 231.25238281 292.31085938 231.91882813 292.39453125 232.60546875 C292.85145287 239.62544638 290.20018086 246.10224817 285.7734375 251.4609375 C284.9071875 252.1621875 284.0409375 252.8634375 283.1484375 253.5859375 C282.2821875 254.3078125 281.4159375 255.0296875 280.5234375 255.7734375 C273.75321328 259.40929865 266.56949832 260.44160684 259.140625 258.33984375 C252.67880967 255.8944901 247.11037886 250.92598959 244.24609375 244.58984375 C243.45949687 242.27257187 242.7890275 239.94788944 242.1484375 237.5859375 C238.43053846 224.20829163 233.12906746 214.1696008 224.1484375 203.5859375 C223.66761719 202.97105469 223.18679688 202.35617188 222.69140625 201.72265625 C211.4058598 187.5750692 193.98203848 177.90387607 178.1484375 169.5859375 C177.51550781 169.25239258 176.88257813 168.91884766 176.23046875 168.57519531 C157.68319704 158.96694373 137.56037965 152.70857791 117.5234375 147.0234375 C61.31623308 131.0754088 0.09965651 105.53600794 -29.8984375 52.00390625 C-35.99023134 40.40606798 -40.81154083 27.87970354 -38.8515625 14.5859375 C-36.22254377 6.39682384 -32.07366351 2.08473198 -24.7890625 -2.2265625 C-16.64198485 -5.3448024 -7.42731916 -4.35063032 0 0 Z " fill="#7AA424" transform="translate(495.8515625,15.4140625)"/>
<path d="M0 0 C5.74682824 4.88264354 9.32641849 10.68724442 10.27734375 18.1875 C10.66371133 27.08940909 7.45252443 33.5622421 2.484375 40.70703125 C-9.31184676 58.92908959 -8.0661886 85.62306873 -4.09375 106.11328125 C2.35688201 136.08286833 15.27789957 163.54995866 30.1796875 190.15527344 C48.28617395 222.49029947 62.82210562 256.24769261 69 293 C69.12987305 293.75893555 69.25974609 294.51787109 69.39355469 295.29980469 C74.2780993 325.1406781 71.86933924 359.89769662 54.27734375 385.5078125 C49.32700035 391.61962599 43.89996621 394.76942996 36.125 395.9375 C28.65503687 396.38432295 22.45399104 394.52966497 16.625 389.8125 C10.97013262 384.29499782 8.79429553 379.49107149 8.25 371.5625 C8.4243243 364.47583823 10.79723408 359.48010595 13.92480469 353.30322266 C27.22168684 326.89331355 18.67530036 295.39282816 10.70849609 268.69042969 C9.14565237 262.75571645 8.82100847 259.44884823 11.3125 253.75 C18.26095104 236.64908993 17.36579163 219.73251231 10.71484375 202.7109375 C2.70761433 185.44744008 -10.68339359 174.81492252 -28 168 C-29.86919657 167.57761013 -31.74375798 167.17751711 -33.625 166.8125 C-36.64442905 165.96048289 -37.70336158 165.42805077 -39.5078125 162.82421875 C-40.92613227 159.59954834 -41.97172795 156.370056 -43 153 C-43.48029109 151.5962523 -43.96488263 150.19397072 -44.453125 148.79296875 C-48.6647581 136.43198594 -51.57261978 123.82073847 -54 111 C-54.13422363 110.30406738 -54.26844727 109.60813477 -54.40673828 108.89111328 C-60.39635193 76.3315398 -56.444271 37.05671836 -37.6875 9 C-28.4026089 -3.86082889 -14.23731417 -8.50416752 0 0 Z " fill="#00958E" transform="translate(394,543)"/>
<path d="M0 0 C0.66644531 0.13390137 1.33289063 0.26780273 2.01953125 0.40576172 C18.7427879 3.91815651 38.96980609 11.4400411 49 26 C52.26316389 32.73610259 52.20568582 40.79972708 50.16015625 47.92578125 C46.93392507 55.08432114 42.12816776 58.98178465 35.1875 62.375 C23.94109422 64.5801776 16.62354868 61.92006876 7.1875 56 C-15.32053781 42.22382848 -44.40292265 45.74270146 -68.86743164 51.54150391 C-86.22418782 55.90671987 -103.14107709 62.4585227 -118.91845703 70.89160156 C-121.22668959 72.12070968 -123.54774635 73.32315424 -125.87109375 74.5234375 C-134.07290111 78.77325452 -142.21867325 83.10568637 -150.29394531 87.59155273 C-197.21894188 113.58237314 -257.2126815 135.01407897 -311.0703125 119.8984375 C-324.28679741 115.9042098 -338.78013012 110.26947525 -346.08984375 97.9296875 C-349.12748218 91.48937255 -349.0795814 83.28456421 -346.75 76.625 C-343.79107483 69.92992047 -339.33620089 66.38277665 -333 63 C-325.1960716 60.39869053 -317.96439906 61.22437141 -310.64697266 64.71704102 C-309.26438857 65.42248277 -307.89065835 66.14569834 -306.52880859 66.89038086 C-296.34073927 72.33057578 -285.46671415 73.54340588 -274.0625 73.4375 C-272.89589844 73.42992676 -271.72929687 73.42235352 -270.52734375 73.41455078 C-253.95824954 73.10545956 -238.5913273 69.60805666 -222.96875 64.26953125 C-216.85695436 62.26182296 -213.13375216 61.4834456 -207.125 64.3125 C-193.01867725 70.87664219 -175.93543071 71.31253932 -161.203125 66.3203125 C-150.96861739 62.10169839 -142.78903823 56.87447558 -135 49 C-134.44957031 48.48308594 -133.89914062 47.96617187 -133.33203125 47.43359375 C-126.52187048 40.44085494 -121.22593063 29.56295313 -120.1875 19.9375 C-119.50878375 17.08603804 -118.8734181 15.5566898 -116.36669922 13.95898438 C-110.81501307 11.28946726 -104.90445472 9.68880788 -99 8 C-97.28135568 7.46476413 -95.56388482 6.92574457 -93.84765625 6.3828125 C-63.48088099 -2.99804331 -31.31942552 -6.41322461 0 0 Z " fill="#FFA10C" transform="translate(532,191)"/>
<path d="M0 0 C5.9864501 4.66460124 8.91448702 10.14738222 10.02734375 17.62109375 C10.50514981 25.4571131 7.73341646 31.64619023 4.08984375 38.43359375 C-8.60171954 63.28001242 -0.9112212 94.11174005 6.56640625 119.296875 C8.57410619 126.30032726 9.86351765 131.07446359 6.77734375 137.93359375 C0.12871719 154.03804476 0.91436595 170.53396821 6.71484375 186.87109375 C14.27662128 204.22551804 27.64538284 215.63529078 44.97265625 222.60546875 C47.88824465 223.79220554 47.88824465 223.79220554 50.27539062 224.06713867 C53.00789388 224.5969155 54.77542831 225.17641332 57.08984375 226.74609375 C59.62566542 231.08345611 60.95762247 235.75785339 62.33984375 240.55859375 C62.75958641 241.92261438 63.18148038 243.28597476 63.60546875 244.64868164 C70.06170414 265.7218452 74.47109137 286.79666559 74.40551758 308.89746094 C74.40235512 311.11313099 74.42595114 313.32746174 74.45117188 315.54296875 C74.56379805 340.98682097 67.9414538 370.57589886 50.08984375 389.74609375 C43.99073565 394.61448896 37.44433359 396.33215731 29.734375 395.48828125 C22.31450309 394.12113567 17.12741262 390.55598174 12.41796875 384.71875 C8.24064532 378.51419608 7.62353765 372.55252013 8.5859375 365.23828125 C9.42140931 361.1062579 11.24870994 358.07395106 13.48046875 354.55078125 C27.11495715 332.5841055 26.75941424 305.57384923 21.42260742 280.9128418 C14.04735486 249.62215668 -0.36977542 221.32644559 -16.09765625 193.49609375 C-41.9956835 147.38459117 -62.50750452 89.07615976 -49.09765625 35.87109375 C-47.18758706 29.25985795 -44.8391994 22.97137788 -41.91015625 16.74609375 C-41.45769531 15.77542969 -41.00523437 14.80476563 -40.5390625 13.8046875 C-36.69851989 6.15482621 -32.02545158 0.30434796 -24.03515625 -3.19140625 C-15.67076113 -5.83193098 -7.30269631 -4.79379451 0 0 Z " fill="#00958E" transform="translate(859.91015625,38.25390625)"/>
<path d="M0 0 C6.25702284 6.82118063 7.32143883 12.30029725 7.1484375 21.5078125 C6.54781515 28.29946519 3.96874233 32.14014015 -0.90625 36.765625 C-6.40817065 41.22829397 -11.89320087 43.57048069 -19.10546875 43.234375 C-25.32060387 42.38201361 -30.63639123 39.75562784 -36.15625 36.890625 C-41.14825614 34.33451539 -45.61740752 32.73711557 -51.15625 31.953125 C-51.836875 31.84355469 -52.5175 31.73398437 -53.21875 31.62109375 C-75.01462322 28.61614799 -100.48460716 32.72119277 -120.7722168 41.02368164 C-126.12554372 43.11073905 -130.25570555 41.76503603 -135.34375 39.578125 C-151.83874191 32.96889442 -167.88196993 33.77583763 -184.40625 40.203125 C-190.7505009 43.00580612 -196.957651 46.6411005 -201.80859375 51.6640625 C-203.15625 52.953125 -203.15625 52.953125 -205.15625 52.953125 C-205.41921875 53.53191406 -205.6821875 54.11070312 -205.953125 54.70703125 C-207.21685061 57.06625926 -208.67241016 58.85609672 -210.40625 60.890625 C-215.92391132 67.87966267 -219.53711509 75.84245631 -221.46875 84.515625 C-222.60796745 88.58999233 -222.60796745 88.58999233 -224.94921875 90.140625 C-225.67753906 90.429375 -226.40585937 90.718125 -227.15625 91.015625 C-227.96682861 91.34183838 -228.77740723 91.66805176 -229.61254883 92.00415039 C-230.45197021 92.31731201 -231.2913916 92.63047363 -232.15625 92.953125 C-232.93186279 93.24630615 -233.70747559 93.5394873 -234.5065918 93.84155273 C-247.7969204 98.69436683 -261.29785896 102.16925466 -275.15625 104.953125 C-276.28804687 105.18902344 -277.41984375 105.42492187 -278.5859375 105.66796875 C-312.83595499 111.89111516 -351.75167844 107.5306811 -381.15625 87.953125 C-387.57370927 83.0385579 -391.4156892 77.12307777 -392.5703125 69.0625 C-392.96217908 61.01892286 -391.09453496 54.45402209 -385.734375 48.328125 C-378.91378813 42.16759493 -372.41206927 41.39472233 -363.52734375 41.6015625 C-358.96170707 42.07770074 -355.9125418 43.40214881 -352.15625 45.953125 C-330.0546259 60.57987832 -303.36862801 59.50845398 -278.33496094 54.48120117 C-250.0190737 48.38072636 -223.62039332 35.87018789 -198.65625 21.453125 C-148.56225245 -7.44539273 -51.08273149 -48.49157844 0 0 Z " fill="#FFA10C" transform="translate(1081.15625,677.046875)"/>
<path d="M0 0 C12.44268368 9.18230132 20.45976257 21.6946701 23 37 C24.52499566 52.66152172 21.76110594 67.03187523 11.92578125 79.6640625 C0.73032233 92.59843214 -12.07030164 99.79017962 -29.265625 101.18359375 C-45.25849335 101.67258433 -59.96055431 95.67339498 -71.625 84.8125 C-82.79385402 72.99580062 -87.4067072 58.45431456 -87.20703125 42.42578125 C-86.44646015 29.84048206 -80.95326112 16.06730139 -72.1328125 6.87109375 C-51.27613712 -11.42624601 -23.95058231 -14.79669483 0 0 Z " fill="#7AA424" transform="translate(671,32)"/>
<path d="M0 0 C10.78886331 10.16996728 17.05910583 22.87220257 18.078125 37.78515625 C18.32422874 54.00749446 13.67500327 68.74813846 2.2890625 80.68359375 C-11.58587744 92.91958447 -26.47431556 97.18045111 -44.79980469 96.04003906 C-58.69770427 94.68001781 -70.83112713 86.92642048 -80.125 76.8125 C-90.24090547 63.52229316 -93.62864381 49.1936602 -92.125 32.8125 C-90.0314054 17.93240617 -81.87470995 5.75532586 -70.1875 -3.5 C-48.44487453 -18.78913703 -20.19642599 -17.27646079 0 0 Z " fill="#FFA10C" transform="translate(960.125,736.1875)"/>
<path d="M0 0 C1.17175781 0.5259375 1.17175781 0.5259375 2.3671875 1.0625 C16.22733535 7.96859443 24.82695293 19.80770979 30.0546875 34.01953125 C34.44668344 47.86702258 32.85304063 63.74089697 26.375 76.625 C18.29764699 90.4804595 6.08963921 100.12528302 -9.3125 104.3984375 C-24.52616464 107.80382174 -39.6865661 105.38776344 -52.9453125 97.17578125 C-65.19621096 88.68026719 -74.10171096 76.53841918 -77.5 61.8125 C-79.89353476 44.56751461 -76.33266581 29.24123784 -65.9296875 15.20703125 C-50.31838519 -3.28592722 -22.26338195 -10.60825723 0 0 Z " fill="#00958E" transform="translate(950,149)"/>
<path d="M0 0 C11.01150949 9.26282638 17.76481102 21.18466027 19.9375 35.4375 C20.90472974 52.41982214 18.03869655 66.50099543 6.625 79.6875 C-4.58586014 91.47758791 -17.74388391 98.18864914 -34.125 98.8125 C-49.54432806 98.50627503 -63.05309661 93.3568358 -74.375 82.75 C-84.75690048 71.68486049 -90.0978989 58.44607073 -90.5 43.25 C-90.01854511 29.84449049 -85.30218192 14.95484494 -75.83984375 5.015625 C-53.79544464 -14.55786344 -24.22073668 -17.9882821 0 0 Z " fill="#7AA424" transform="translate(668.0625,851.5625)"/>
<path d="M0 0 C10.09341811 8.03476055 17.5222217 20.77575142 19.66015625 33.4453125 C21.58870739 51.18006734 17.93958984 66.76283834 6.69921875 80.9140625 C-3.09487274 91.54556701 -16.25847951 97.8690897 -30.6328125 98.75390625 C-46.21709794 99.35769185 -59.55802911 95.49067854 -71.46484375 85.1953125 C-82.55698854 74.75665841 -89.28429433 62.88272284 -90.33984375 47.4453125 C-90.48878459 29.96338103 -84.99686688 15.57384624 -73 2.8359375 C-52.00779118 -16.02930743 -22.77076977 -15.12982699 0 0 Z " fill="#FFA10C" transform="translate(384.33984375,151.5546875)"/>
<path d="M0 0 C2.50875572 2.20455031 4.88802036 4.47967955 7.234375 6.85546875 C7.80929687 7.40847656 8.38421875 7.96148438 8.9765625 8.53125 C18.59421468 18.57247753 21.62163895 32.35369079 21.53295898 45.77392578 C21.156194 59.73217136 15.82301463 72.8718021 6.16796875 83.0859375 C-6.48765053 94.66774666 -20.85971697 99.5427066 -37.765625 99.1015625 C-53.84900643 98.33332113 -66.13606739 90.29247035 -76.76953125 78.6640625 C-86.93739168 66.38796319 -89.86037004 52.49468365 -88.765625 36.85546875 C-86.44596449 21.18314058 -78.43132815 9.11160328 -66.453125 -0.95703125 C-46.94674732 -15.39106988 -19.10344045 -14.81326102 0 0 Z " fill="#00958E" transform="translate(378.765625,729.14453125)"/>
<path d="M0 0 C11.67867757 9.85885338 18.12520767 23.11376455 19.95703125 38.14453125 C20.77032937 54.56298715 15.95671636 68.6518583 5.265625 81.12109375 C-3.80191012 90.77481296 -16.69868726 97.5798759 -30.04296875 98.16796875 C-47.24311258 98.56689044 -61.87675485 94.78307724 -74.73046875 82.6171875 C-86.81693764 69.72203986 -90.3702932 55.39207059 -90.1328125 38.2890625 C-89.63829111 24.22595668 -82.96499386 11.57694804 -72.85546875 1.9296875 C-51.32603175 -16.04271208 -22.60580075 -16.38997866 0 0 Z " fill="#0E5351" transform="translate(262.85546875,440.0703125)"/>
<path d="M0 0 C10.13429202 10.90660795 15.49095829 25.31812391 15.08032227 40.12768555 C14.33124217 55.08284928 8.83545129 66.95033049 -0.8984375 78.26171875 C-14.75819019 90.61911657 -29.44596775 94.1440628 -47.55126953 93.43652344 C-60.49680826 92.47240801 -73.03538689 85.25714731 -81.796875 75.90625 C-92.97882624 61.83528162 -96.56016448 46.98424809 -94.8984375 29.26171875 C-94.04572808 24.66575951 -92.73413463 20.55460295 -90.8984375 16.26171875 C-90.29708984 14.85019531 -90.29708984 14.85019531 -89.68359375 13.41015625 C-83.47861478 0.64048939 -72.32343332 -8.6648386 -59.19921875 -13.79296875 C-37.8885861 -20.64631156 -16.25324675 -15.07589142 0 0 Z " fill="#0E5351" transform="translate(1084.8984375,450.73828125)"/>
<path d="M0 0 C0.74765625 0.96421875 1.4953125 1.9284375 2.265625 2.921875 C2.68336182 3.45055176 3.10109863 3.97922852 3.53149414 4.52392578 C4.41970755 5.6518629 5.30050887 6.78567098 6.17431641 7.92480469 C7.50524016 9.65834862 8.85621094 11.37405036 10.21484375 13.0859375 C12.51680284 15.9911431 14.80147494 18.90935441 17.08056641 21.83251953 C19.59444169 25.05462508 22.11749956 28.26951164 24.640625 31.484375 C25.1142749 32.08942871 25.5879248 32.69448242 26.07592773 33.31787109 C28.19008185 36.08631138 28.19008185 36.08631138 30.515625 38.671875 C30.53020752 37.60751221 30.54479004 36.54314941 30.55981445 35.4465332 C30.6179228 31.48591031 30.69515445 27.52584852 30.77807617 23.56567383 C30.81126669 21.85385262 30.83931689 20.14192352 30.86206055 18.42993164 C30.89571532 15.96454021 30.94803474 13.50013219 31.00390625 11.03515625 C31.01029617 10.27350662 31.0166861 9.51185699 31.02326965 8.72712708 C31.14662285 4.23793068 31.65330005 1.19598513 34.515625 -2.328125 C38.13185639 -3.8683717 40.40368722 -4.58083813 44.265625 -3.703125 C46.86462663 -2.11484623 47.95768312 -0.94709427 49.515625 1.671875 C49.90330505 4.70079041 49.90330505 4.70079041 49.91967773 8.28881836 C49.92654099 8.9446138 49.93340424 9.60040924 49.94047546 10.27607727 C49.95873705 12.43817968 49.95490715 14.59955596 49.94921875 16.76171875 C49.95378106 18.26860286 49.95908679 19.77548489 49.96510315 21.28236389 C49.97403307 24.4388983 49.97161285 27.59517969 49.96166992 30.75170898 C49.95018306 34.79152565 49.97038694 38.83046785 49.99958706 42.87016964 C50.01795769 45.98179142 50.01765491 49.093204 50.01194954 52.20486641 C50.01179641 53.69397775 50.0178337 55.18310335 50.03024101 56.67216301 C50.04516596 58.75717439 50.03446585 60.84057519 50.01733398 62.92553711 C50.01716782 64.11038193 50.01700165 65.29522675 50.01683044 66.51597595 C49.41518658 70.30429731 48.18318583 71.96602577 45.515625 74.671875 C42.35465735 75.89585871 39.73450462 75.65942513 36.515625 74.671875 C33.25416353 72.13236811 30.96695587 68.97704022 28.515625 65.671875 C27.32862059 64.14742787 26.14159266 62.62299888 24.95385742 61.09912109 C23.68156267 59.45653715 22.42338588 57.80394842 21.16796875 56.1484375 C17.98110483 51.95412876 14.71571753 47.82251685 11.44604492 43.69262695 C8.06275756 39.40636113 4.77668637 35.05172041 1.515625 30.671875 C1.50946167 32.40473755 1.50946167 32.40473755 1.50317383 34.17260742 C1.48136176 38.46879369 1.42705098 42.76406679 1.36303711 47.05981445 C1.33987512 48.91714713 1.3254656 50.77461082 1.32006836 52.63208008 C1.31076538 55.30633 1.26974803 57.97852468 1.22265625 60.65234375 C1.22855522 61.8932502 1.22855522 61.8932502 1.23457336 63.15922546 C1.12519983 67.50469972 0.90773982 69.18122612 -1.8996582 72.6940918 C-4.40298967 74.60960027 -5.40137562 75.35903225 -8.484375 75.296875 C-9.4434375 75.31621094 -9.4434375 75.31621094 -10.421875 75.3359375 C-13.72330847 74.27297597 -15.28314235 72.30103105 -17.484375 69.671875 C-18.11256409 66.52270508 -18.11256409 66.52270508 -18.11547852 62.94140625 C-18.12621147 61.95749405 -18.12621147 61.95749405 -18.13716125 60.95370483 C-18.15399956 58.79654183 -18.13467869 56.64147179 -18.11328125 54.484375 C-18.11411042 52.97892078 -18.11657162 51.47346666 -18.12059021 49.96801758 C-18.12344483 46.81726742 -18.10878131 43.66722945 -18.08129883 40.51660156 C-18.04721543 36.48458641 -18.05323677 32.45384429 -18.0719614 28.42176819 C-18.08254674 25.31438651 -18.07357989 22.20729938 -18.05857658 19.09994507 C-18.05340549 17.61364619 -18.05386355 16.12731642 -18.06012154 14.64102173 C-18.06559283 12.56079328 -18.04514267 10.48236664 -18.01782227 8.40234375 C-18.01162369 7.22051514 -18.00542511 6.03868652 -17.9990387 4.82104492 C-17.38258616 1.04904039 -16.1231582 -0.61575996 -13.484375 -3.328125 C-8.8200211 -5.74072185 -3.5487759 -3.32558245 0 0 Z " fill="#0E5351" transform="translate(116.484375,1034.328125)"/>
<path d="M0 0 C8.78854693 7.1906293 14.33747532 15.91492539 15.75 27.25 C16.69130351 40.09796726 14.71434655 51.85310416 6.75 62.25 C0.24387734 69.40124452 -8.07213832 73.82987786 -17.75390625 74.48828125 C-29.59236278 74.81408352 -38.89114077 73.06642866 -48.24609375 65.234375 C-56.75443305 56.80896298 -60.14841 46.3956218 -60.5 34.625 C-60.35761946 23.12065243 -57.23041285 12.82340738 -49.3984375 4.21484375 C-35.48139219 -8.84278243 -16.09433872 -8.66618239 0 0 Z M-34.03125 14.796875 C-40.04368875 21.45771401 -40.64773653 28.00690823 -40.5 36.76953125 C-39.9596448 44.29228877 -37.79310357 50.07643667 -32.25 55.25 C-26.81234537 58.43557879 -22.30153289 58.71408054 -16.25 57.25 C-10.76150455 54.55956105 -7.88487849 50.62473221 -5.25 45.25 C-2.69305962 37.72575505 -3.04828245 27.69154381 -6.4375 20.5625 C-9.27211652 15.76116921 -12.11718798 13.12053552 -17.3125 11 C-23.47117691 9.42757185 -29.21512267 10.61444863 -34.03125 14.796875 Z " fill="#0E5351" transform="translate(799.25,1035.75)"/>
<path d="M0 0 C3.2869452 2.61910298 5.20625053 4.55201618 6.7109375 8.51171875 C6.42390934 12.91281728 4.57701478 15.33314147 1.5234375 18.38671875 C-3.65693823 19.26848483 -6.34046626 18.08754572 -10.8515625 15.44921875 C-16.54895855 12.16016111 -21.04858223 10.67042782 -27.6015625 11.73046875 C-33.48678518 13.42469952 -36.53136139 17.17448783 -39.4765625 22.38671875 C-42.65598708 30.19076091 -42.43170592 38.52219941 -39.4453125 46.34765625 C-37.22285666 51.02556733 -34.50023749 54.20957753 -29.6640625 56.32421875 C-24.35058471 58.01851638 -20.04221378 57.28171338 -14.7890625 55.44921875 C-11.11268615 52.17028849 -9.44118997 47.84266106 -7.4765625 43.38671875 C-8.36859375 43.40992188 -9.260625 43.433125 -10.1796875 43.45703125 C-11.35015625 43.47507812 -12.520625 43.493125 -13.7265625 43.51171875 C-14.88671875 43.53492188 -16.046875 43.558125 -17.2421875 43.58203125 C-20.33039221 43.39554546 -21.93207701 43.06907269 -24.4765625 41.38671875 C-26.5581527 38.71038849 -26.47243841 37.26918207 -26.3515625 33.82421875 C-25.4765625 30.38671875 -25.4765625 30.38671875 -23.8203125 28.69897461 C-18.95660721 25.97580629 -12.91143335 26.91920691 -7.4765625 26.94921875 C-6.19265625 26.92923828 -4.90875 26.90925781 -3.5859375 26.88867188 C-2.35359375 26.88931641 -1.12125 26.88996094 0.1484375 26.890625 C1.27507813 26.88877197 2.40171875 26.88691895 3.5625 26.88500977 C7.17044158 27.49634881 8.31422172 28.52374883 10.5234375 31.38671875 C13.27334677 39.63644657 11.05519128 49.29166286 7.26953125 56.91015625 C2.50218158 64.52232766 -3.89120417 70.67718129 -12.4453125 73.7265625 C-22.60604939 75.93940339 -34.35139571 75.71330281 -43.4765625 70.38671875 C-52.88763994 63.49428937 -59.60123281 55.0714653 -61.4765625 43.38671875 C-62.67937898 29.5320548 -61.78257407 17.49677101 -52.5234375 6.45703125 C-38.89127115 -7.33122861 -16.67148533 -10.86013161 0 0 Z " fill="#0E5352" transform="translate(613.4765625,1035.61328125)"/>
<path d="M0 0 C2.08980447 -0.0043312 4.17742054 -0.04054733 6.2668457 -0.07861328 C17.1728699 -0.17082309 26.644944 1.58681309 35.27661133 8.60888672 C43.34010811 16.58396797 46.89888699 26.8288278 47.30786133 37.99560547 C47.16592652 48.48301109 44.11808651 58.64724594 37.12036133 66.56201172 C27.89660583 75.50576035 17.74354629 77.02826264 5.25805664 76.8371582 C3.16449437 76.80784833 1.07342195 76.81666285 -1.02026367 76.82958984 C-12.43967571 76.77675125 -12.43967571 76.77675125 -16.94213867 73.37060547 C-19.29194585 69.84589471 -19.19498975 68.39149854 -19.20092773 64.21850586 C-19.20723206 62.95031509 -19.21353638 61.68212433 -19.22003174 60.37550354 C-19.21645156 58.98975486 -19.2123495 57.60400744 -19.20776367 56.21826172 C-19.20911107 54.79723545 -19.21105222 53.37620963 -19.21356201 51.95518494 C-19.21651074 48.97683321 -19.21222442 45.99860145 -19.20288086 43.02026367 C-19.19149674 39.2058737 -19.19804062 35.3917655 -19.21002579 31.5773859 C-19.21726007 28.64255153 -19.21494909 25.70778371 -19.2097702 22.77294731 C-19.2084375 21.36675419 -19.21006812 19.960555 -19.21472931 18.55436897 C-19.21981885 16.58694706 -19.21068368 14.61950392 -19.20092773 12.65209961 C-19.19933655 11.53307755 -19.19774536 10.41405548 -19.19610596 9.26112366 C-18.94469076 6.39965191 -18.49022037 4.76233893 -16.94213867 2.37060547 C-12.1890321 -1.06374769 -5.61738484 -0.00130107 0 0 Z M-0.94213867 16.37060547 C-0.94213867 30.89060547 -0.94213867 45.41060547 -0.94213867 60.37060547 C11.1244877 61.19250472 11.1244877 61.19250472 21.05786133 56.37060547 C27.13870079 48.91470181 27.68666586 41.76639628 27.05786133 32.37060547 C26.00222116 26.11065929 22.85243672 22.7440517 18.09301758 18.71826172 C12.27742946 14.86724847 6.05137206 16.37060547 -0.94213867 16.37060547 Z " fill="#0E5452" transform="translate(424.942138671875,1031.62939453125)"/>
<path d="M0 0 C1.37315239 -0.01143757 2.74626326 -0.03175693 4.11914062 -0.06152344 C13.75996211 -0.27044681 22.30415468 -0.03459809 30.01855469 6.29516602 C30.79199219 7.28516602 30.79199219 7.28516602 31.58105469 8.29516602 C32.11730469 8.95516602 32.65355469 9.61516602 33.20605469 10.29516602 C37.69029417 16.81769618 37.37067999 23.63257758 36.58105469 31.29516602 C34.71298333 36.47481841 31.28446531 40.42723271 26.58105469 43.29516602 C23.26855469 44.04516602 23.26855469 44.04516602 20.58105469 44.29516602 C24.6637379 49.80678835 28.91791163 54.82898227 33.88183594 59.56860352 C36.81124265 62.5451501 37.88686926 64.62996996 37.95605469 68.73266602 C37.86144765 71.78996714 37.66764534 73.14080876 36.14355469 75.85766602 C32.95900473 77.64412087 30.72046092 78.29671274 27.06542969 78.11157227 C21.43355495 76.26084613 18.10269976 70.8145892 14.58105469 66.29516602 C13.59123576 65.05863447 12.60032213 63.82297854 11.60839844 62.58813477 C7.85446264 57.88256584 4.18770553 53.11466138 0.58105469 48.29516602 C0.57489136 49.34643677 0.57489136 49.34643677 0.56860352 50.41894531 C0.53562097 53.60769806 0.46497137 56.79455206 0.39355469 59.98266602 C0.38775391 61.08545898 0.38195312 62.18825195 0.37597656 63.32446289 C0.15393101 71.49080486 0.15393101 71.49080486 -2.71972656 75.52563477 C-6.46321167 77.97975742 -6.46321167 77.97975742 -9.41894531 77.92016602 C-10.37800781 77.93950195 -10.37800781 77.93950195 -11.35644531 77.95922852 C-14.65128854 76.89838884 -16.21766502 74.91390047 -18.41894531 72.29516602 C-19.0471344 69.22192383 -19.0471344 69.22192383 -19.05004883 65.74829102 C-19.06258194 64.4434375 -19.07511505 63.13858398 -19.08802795 61.79418945 C-19.07575928 60.37783813 -19.0623392 58.96149638 -19.04785156 57.54516602 C-19.04868078 56.08455224 -19.05114216 54.62393856 -19.05516052 53.16333008 C-19.05801479 50.10672819 -19.04335525 47.05086058 -19.01586914 43.99438477 C-18.9817856 40.08342543 -18.9878073 36.17377853 -19.00653172 32.26275635 C-19.01711856 29.24801768 -19.00814889 26.23358254 -18.9931469 23.21887207 C-18.98797689 21.77723086 -18.98843254 20.33555779 -18.99469185 18.8939209 C-19.00016329 16.87658575 -18.97687422 14.85923503 -18.95239258 12.84204102 C-18.946194 11.69574219 -18.93999542 10.54944336 -18.93360901 9.3684082 C-18.31008692 5.64513335 -17.02403588 3.97705296 -14.41894531 1.29516602 C-10.18026318 -0.82417505 -4.66188965 0.02697598 0 0 Z M-0.41894531 16.29516602 C-0.41894531 21.57516602 -0.41894531 26.85516602 -0.41894531 32.29516602 C1.78792969 32.37766602 3.99480469 32.46016602 6.26855469 32.54516602 C7.50992188 32.59157227 8.75128906 32.63797852 10.03027344 32.68579102 C14.16775863 32.23062213 15.74426582 31.29162405 18.58105469 28.29516602 C19.34107691 24.11504379 19.01082345 22.0720557 16.95605469 18.35766602 C11.40355397 14.96447113 5.98861653 15.99574724 -0.41894531 16.29516602 Z " fill="#0E5351" transform="translate(673.4189453125,1031.704833984375)"/>
<path d="M0 0 C0.77085937 -0.04898437 1.54171875 -0.09796875 2.3359375 -0.1484375 C4.625 0.375 4.625 0.375 6.73657227 2.30688477 C9.36678086 6.58016614 9.1741924 10.06440924 9.12890625 14.98828125 C9.13832748 15.91666306 9.14774872 16.84504486 9.15745544 17.80155945 C9.18607616 20.76376462 9.18918574 23.72516788 9.1875 26.6875 C9.19111852 29.63900364 9.20079092 32.58992266 9.22825623 35.54130554 C9.24491804 37.37441205 9.24802094 39.20771007 9.23524475 41.04084778 C9.28237238 46.82037698 10.18693879 51.10996872 12.625 56.375 C16.18871561 59.84962271 18.90094056 61.20922505 23.875 61.6875 C28.20910838 61.3263243 31.40309199 60.35765742 34.625 57.375 C38.03299054 52.03718986 38.05144501 47.46132051 38.03125 41.33984375 C38.04208618 40.38356583 38.05292236 39.4272879 38.06408691 38.44203186 C38.10980759 34.36854809 38.1214299 30.29512991 38.13623047 26.22143555 C38.15193434 23.23984195 38.18493167 20.25877802 38.21875 17.27734375 C38.21572876 16.35952621 38.21270752 15.44170868 38.20959473 14.49607849 C38.28160547 8.36286487 39.16836894 4.83163106 43.625 0.375 C46.66264616 -0.12931963 49.58189139 -0.07442707 52.625 0.375 C55.65715675 2.57331364 56.44154398 3.82463194 57.625 7.375 C57.72066386 8.78486014 57.76306115 10.19873278 57.77026367 11.61181641 C57.77664352 12.46345367 57.78302338 13.31509094 57.78959656 14.1925354 C57.79070938 15.11126434 57.7918222 16.02999329 57.79296875 16.9765625 C57.79796135 18.40311661 57.79796135 18.40311661 57.80305481 19.85848999 C57.80812034 21.87424232 57.81046325 23.89000303 57.81030273 25.90576172 C57.81247676 28.96726642 57.83060188 32.02840341 57.84960938 35.08984375 C57.85254599 37.05208211 57.85452899 39.01432217 57.85546875 40.9765625 C57.86265427 41.88314606 57.86983978 42.78972961 57.87724304 43.7237854 C57.84191671 53.71957488 56.20377561 61.62666428 49.625 69.375 C42.39579877 76.35598831 34.17002209 79.57127215 24.1875 79.875 C13.08243145 79.52796661 5.32347398 76.36535925 -2.375 68.375 C-3.5196875 67.2303125 -3.5196875 67.2303125 -4.6875 66.0625 C-9.26676244 58.76960056 -9.82658043 50.70078913 -9.7734375 42.29296875 C-9.77774277 40.76715935 -9.77774277 40.76715935 -9.78213501 39.21052551 C-9.78416223 37.07857704 -9.77872719 34.94660939 -9.76611328 32.81469727 C-9.74995679 29.55377915 -9.76605096 26.29408468 -9.78515625 23.03320312 C-9.78317521 20.95312228 -9.77933443 18.87304218 -9.7734375 16.79296875 C-9.77951019 15.82207809 -9.78558289 14.85118744 -9.7918396 13.85087585 C-9.74046934 8.91662272 -9.68679916 5.33106891 -6.375 1.375 C-4.08773777 0.23136888 -2.54647573 0.10998068 0 0 Z " fill="#0E5351" transform="translate(853.375,1030.625)"/>
<path d="M0 0 C2.125 0.39453125 2.125 0.39453125 4.625 2.20703125 C6.80139615 5.38094231 7.2505193 7.92742563 7.28271484 11.67895508 C7.29297699 12.54027542 7.30323914 13.40159576 7.31381226 14.28901672 C7.32111359 15.21715683 7.32841492 16.14529694 7.3359375 17.1015625 C7.36400855 19.06966974 7.39267303 21.03776859 7.421875 23.00585938 C7.4631092 26.10652408 7.50000001 29.20703253 7.52636719 32.30786133 C7.55403037 35.30192365 7.59990393 38.29527535 7.6484375 41.2890625 C7.65169037 42.21112991 7.65494324 43.13319733 7.65829468 44.08320618 C7.75685861 49.26398385 8.25860598 52.90045721 11.125 57.39453125 C14.25333079 60.29056024 17.5001383 61.31779385 21.6875 61.83203125 C26.1645059 61.2622305 29.23158917 59.74696756 32.875 57.14453125 C36.76606616 51.69703862 36.39300155 44.8698632 36.36328125 38.48046875 C36.37868913 36.56639906 36.39499187 34.65233641 36.41210938 32.73828125 C36.42860219 29.74495836 36.43745914 26.75215399 36.43041992 23.75878906 C36.42780246 20.85292695 36.45588303 17.94862264 36.48828125 15.04296875 C36.47807449 14.15016205 36.46786774 13.25735535 36.45735168 12.3374939 C36.52822011 7.83465668 36.6634968 5.9805819 39.53588867 2.33300781 C42.03794149 0.45971225 43.06472456 -0.29216785 46.125 -0.23046875 C46.764375 -0.24335937 47.40375 -0.25625 48.0625 -0.26953125 C51.53657569 0.84901585 52.90296129 2.49804162 55.125 5.39453125 C55.85500659 9.02434548 55.77821842 12.59351133 55.71875 16.28515625 C55.71879028 17.34434265 55.71883057 18.40352905 55.71887207 19.49481201 C55.71351667 21.73406916 55.69593329 23.97332582 55.66699219 26.21240234 C55.62531535 29.61875729 55.62591163 33.02312173 55.6328125 36.4296875 C55.62231284 38.61069068 55.60937058 40.79168374 55.59375 42.97265625 C55.59344788 44.48717377 55.59344788 44.48717377 55.59313965 46.0322876 C55.41979497 56.53631704 52.95218301 63.50716822 45.671875 71.15625 C37.42345616 78.40524386 28.67981892 79.88983995 18.01953125 79.6640625 C9.00616915 79.04026913 2.49754605 75.7695306 -3.99609375 69.5546875 C-8.55860478 64.30922263 -10.97653221 58.2824624 -11.05200195 51.34399414 C-11.06483719 50.3160524 -11.07767242 49.28811066 -11.09089661 48.22901917 C-11.09828354 47.11961472 -11.10567047 46.01021027 -11.11328125 44.8671875 C-11.121353 43.7267247 -11.12942474 42.5862619 -11.13774109 41.41123962 C-11.15157576 38.99788939 -11.16230067 36.58451965 -11.17016602 34.17114258 C-11.18741591 30.4750492 -11.23131317 26.77984168 -11.27539062 23.08398438 C-11.28551429 20.740892 -11.29403141 18.39779202 -11.30078125 16.0546875 C-11.31828934 14.94730728 -11.33579742 13.83992706 -11.35383606 12.69898987 C-11.35091049 11.66789597 -11.34798492 10.63680206 -11.3449707 9.57446289 C-11.35083694 8.66861954 -11.35670319 7.76277618 -11.36274719 6.82948303 C-10.10057882 0.5284337 -5.55453981 -0.24666542 0 0 Z " fill="#0E5351" transform="translate(10.875,1030.60546875)"/>
<path d="M0 0 C1.47021442 -0.01644319 2.94035283 -0.04357709 4.41015625 -0.08203125 C13.32427914 -0.31375009 21.27007989 -0.25440537 28.7265625 5.35009766 C35.4553763 12.40103552 37.22889014 19.38933809 37.03125 29.02978516 C36.27195513 37.30415231 33.23016916 42.66284994 26.921875 47.97509766 C20.93288303 51.72621006 15.184264 51.60180967 8.3515625 51.47509766 C6.96130859 51.4615625 6.96130859 51.4615625 5.54296875 51.44775391 C3.27056173 51.42432703 0.9987007 51.39152514 -1.2734375 51.35009766 C-1.25772705 51.92977295 -1.2420166 52.50944824 -1.22583008 53.10668945 C-1.16320959 55.75022505 -1.12436232 58.3936042 -1.0859375 61.03759766 C-1.06080078 61.94960937 -1.03566406 62.86162109 -1.00976562 63.80126953 C-0.91640799 72.35905289 -0.91640799 72.35905289 -4.2734375 76.35009766 C-7.43139857 77.92907819 -10.88014386 78.16937936 -14.2734375 77.35009766 C-17.39599313 74.79589175 -19.08204083 73.28645317 -19.90162659 69.27685547 C-19.90258835 68.13055664 -19.90355011 66.98425781 -19.90454102 65.80322266 C-19.91707413 64.49836914 -19.92960724 63.19351562 -19.94252014 61.84912109 C-19.93025147 60.43276977 -19.91683139 59.01642802 -19.90234375 57.60009766 C-19.90317297 56.13948388 -19.90563435 54.6788702 -19.90965271 53.21826172 C-19.91250698 50.16165983 -19.89784743 47.10579222 -19.87036133 44.04931641 C-19.83627779 40.13835707 -19.84229949 36.22871017 -19.8610239 32.31768799 C-19.87161075 29.30294933 -19.86264108 26.28851418 -19.84763908 23.27380371 C-19.84246908 21.8321625 -19.84292473 20.39048943 -19.84918404 18.94885254 C-19.85465548 16.93151739 -19.83136641 14.91416667 -19.80688477 12.89697266 C-19.80068619 11.75067383 -19.79448761 10.604375 -19.7881012 9.42333984 C-19.1645791 5.70006499 -17.87852806 4.0319846 -15.2734375 1.35009766 C-10.84953204 -0.86185507 -4.91424923 0.04015619 0 0 Z M-1.2734375 16.35009766 C-1.2734375 22.62009766 -1.2734375 28.89009766 -1.2734375 35.35009766 C1.789375 35.47384766 1.789375 35.47384766 4.9140625 35.60009766 C6.63689453 35.66970703 6.63689453 35.66970703 8.39453125 35.74072266 C12.36636112 35.27509196 13.91427735 34.12639379 16.7265625 31.35009766 C18.27680714 28.24960837 18.01648265 25.77115548 17.7265625 22.35009766 C15.93093845 19.59680745 14.67401328 17.82382305 11.7265625 16.35009766 C7.39052271 16.21076476 3.06575579 16.30755655 -1.2734375 16.35009766 Z " fill="#0E5352" transform="translate(963.2734375,1031.64990234375)"/>
<path d="M0 0 C2.88027001 2.31068852 3.00371091 3.01643402 3.875 6.875 C4.11822738 9.74614057 3.95449644 11.13366671 3 13.9375 C1 16 1 16 -2.125 17 C-6.25467523 17 -8.92766188 16.1152543 -12.7421875 14.71875 C-17.84114809 13.09555147 -22.33997587 13.45587659 -27.25 15.625 C-31.79691754 18.19267108 -34.0998719 21.20124104 -35.71484375 26.22265625 C-37.78248876 34.75000268 -37.60882522 43.5666726 -33.2421875 51.34375 C-30.56412921 54.91449439 -27.13916232 56.62027923 -23 58 C-18.56900677 58.43887933 -15.02832463 58.51416232 -11 56.5 C-6.95924742 54.47962371 -3.44111259 54.24239844 1 55 C3.0625 56.5 3.0625 56.5 4 59 C4.4895312 63.40578082 4.59944913 65.80110173 2.625 69.75 C-5.64059315 76.83479413 -15.54905594 76.9512616 -25.94726562 76.23632812 C-30.41140686 75.72237847 -34.13221364 74.2145576 -38 72 C-39.051875 71.4225 -40.10375 70.845 -41.1875 70.25 C-49.5484911 63.56120712 -54.89194712 55.48704981 -56.6796875 44.890625 C-58.08927478 32.16995934 -57.49905279 19.77004679 -49.8125 9.0625 C-37.78161891 -4.88820254 -16.33343789 -8.92814978 0 0 Z " fill="#0E5351" transform="translate(1276,1034)"/>
<path d="M0 0 C0.76313004 -0.00902847 1.52626007 -0.01805695 2.31251526 -0.02735901 C3.9255074 -0.04185649 5.53855828 -0.05074701 7.15161133 -0.05444336 C9.61705626 -0.06634903 12.08000458 -0.11554034 14.54492188 -0.16601562 C16.11326905 -0.17547925 17.68163158 -0.18271458 19.25 -0.1875 C20.35328896 -0.21679848 20.35328896 -0.21679848 21.47886658 -0.24668884 C25.27634571 -0.21327539 26.8616518 0.05658239 29.65258789 2.71850586 C31.55804382 6.00309711 31.89203565 7.6344036 31.19140625 11.37109375 C29.36328125 14.0390625 29.36328125 14.0390625 26.19140625 16.37109375 C22.4022137 16.98535519 18.70472444 16.84269687 14.87890625 16.68359375 C13.85216797 16.66103516 12.82542969 16.63847656 11.76757812 16.61523438 C9.24155959 16.55648976 6.71629401 16.46681401 4.19140625 16.37109375 C4.19140625 20.99109375 4.19140625 25.61109375 4.19140625 30.37109375 C5.6609375 30.3246875 7.13046875 30.27828125 8.64453125 30.23046875 C10.5768026 30.19294892 12.50909592 30.15654899 14.44140625 30.12109375 C15.89353516 30.07082031 15.89353516 30.07082031 17.375 30.01953125 C24.5321009 29.92081262 24.5321009 29.92081262 27.828125 32.171875 C29.8670652 35.46105361 29.78970233 37.58188525 29.19140625 41.37109375 C27.30078125 44.07421875 27.30078125 44.07421875 24.19140625 46.37109375 C20.73104153 46.9747446 17.37790268 46.84432503 13.87890625 46.68359375 C12.94755859 46.66103516 12.01621094 46.63847656 11.05664062 46.61523438 C8.76753498 46.55653936 6.47926064 46.4668644 4.19140625 46.37109375 C4.19140625 50.99109375 4.19140625 55.61109375 4.19140625 60.37109375 C5.72152344 60.31308594 7.25164062 60.25507812 8.828125 60.1953125 C10.84502155 60.14840793 12.86195113 60.10290852 14.87890625 60.05859375 C15.88630859 60.01669922 16.89371094 59.97480469 17.93164062 59.93164062 C25.42641818 59.80796443 25.42641818 59.80796443 29.359375 62.703125 C31.19140625 65.37109375 31.19140625 65.37109375 31.81640625 68.37109375 C30.96493514 72.45815505 29.4355613 73.78066391 26.19140625 76.37109375 C23.39678042 76.8597374 21.22449786 77.05254618 18.44140625 77 C17.70567383 77.00241196 16.96994141 77.00482391 16.21191406 77.00730896 C14.66205434 77.0063329 13.11215872 76.99299648 11.5625 76.96801758 C9.19800712 76.93368958 6.83725211 76.9473706 4.47265625 76.96679688 C2.96222377 76.95989796 1.45180088 76.95022514 -0.05859375 76.9375 C-1.11191895 76.9449398 -1.11191895 76.9449398 -2.18652344 76.95252991 C-6.97112749 76.83845012 -9.48516616 75.81282474 -12.80859375 72.37109375 C-13.88129968 69.15297595 -13.94832272 66.80294734 -13.96972656 63.41845703 C-13.97933411 62.19353546 -13.98894165 60.96861389 -13.99884033 59.70657349 C-14.0036883 58.3681863 -14.00796713 57.02979696 -14.01171875 55.69140625 C-14.01747292 54.31761677 -14.02323062 52.9438273 -14.0289917 51.57003784 C-14.03949182 48.69008002 -14.04534098 45.81015004 -14.04882812 42.93017578 C-14.05431165 39.24585619 -14.07834035 35.56190638 -14.10680008 31.87770271 C-14.12545401 29.03977392 -14.1306335 26.20193374 -14.132164 23.36394882 C-14.13518473 22.00601047 -14.14319372 20.64807346 -14.15634918 19.29019547 C-14.17346569 17.38771161 -14.16967652 15.48507473 -14.16503906 13.58251953 C-14.16868469 12.50124786 -14.17233032 11.4199762 -14.17608643 10.30593872 C-13.75310057 6.92791791 -12.83169861 5.08860045 -10.80859375 2.37109375 C-7.12777527 -0.08278524 -4.26472889 0.03100869 0 0 Z " fill="#0F5352" transform="translate(343.80859375,1031.62890625)"/>
<path d="M0 0 C1.02806763 -0.0038269 2.05613525 -0.00765381 3.11535645 -0.01159668 C5.28736348 -0.01431674 7.45940323 -0.00694906 9.63134766 0.00976562 C12.95679729 0.03117305 16.28008635 0.00996622 19.60546875 -0.015625 C21.7161506 -0.01298174 23.82683111 -0.00785681 25.9375 0 C26.93237427 -0.00809692 27.92724854 -0.01619385 28.95227051 -0.02453613 C35.83336609 0.06898056 35.83336609 0.06898056 39.09155273 2.43945312 C40.5682798 4.68242378 41.03645688 5.86532912 41.03125 8.53125 C41.05316406 9.19125 41.07507813 9.85125 41.09765625 10.53125 C40.10233221 13.69650408 38.19989412 14.74236562 35.46875 16.53125 C32.13671875 16.921875 32.13671875 16.921875 28.65625 16.78125 C27.49480469 16.74515625 26.33335937 16.7090625 25.13671875 16.671875 C24.25628906 16.62546875 23.37585938 16.5790625 22.46875 16.53125 C22.47541183 17.19444244 22.48207367 17.85763489 22.48893738 18.54092407 C22.55537504 25.45154974 22.60058582 32.36208448 22.63354492 39.27294922 C22.64861905 41.85111171 22.66908167 44.42924862 22.69506836 47.00732422 C22.73151086 50.71588461 22.74849052 54.42410554 22.76171875 58.1328125 C22.77720261 59.28302887 22.79268646 60.43324524 22.80863953 61.61831665 C22.81076873 71.77289785 22.81076873 71.77289785 19.46875 76.53125 C16.01553373 78.25785813 12.24476271 78.02172852 8.46875 77.53125 C5.17833239 75.22795767 4.1943714 73.3789801 3.46875 69.53125 C3.38330403 67.7597938 3.35100196 65.98542478 3.35522461 64.21191406 C3.35530014 63.15111633 3.35537567 62.0903186 3.35545349 60.99737549 C3.36061478 59.85871033 3.36577606 58.72004517 3.37109375 57.546875 C3.3725087 56.37614441 3.37392365 55.20541382 3.37538147 53.99920654 C3.3809791 50.25986171 3.3935312 46.52057674 3.40625 42.78125 C3.4112653 40.24609461 3.41582816 37.71093829 3.41992188 35.17578125 C3.43094776 28.96091707 3.44768356 22.74608781 3.46875 16.53125 C2.50453125 16.57765625 1.5403125 16.6240625 0.546875 16.671875 C-0.71640625 16.70796875 -1.9796875 16.7440625 -3.28125 16.78125 C-5.16070312 16.85085938 -5.16070312 16.85085938 -7.078125 16.921875 C-10.53125 16.53125 -10.53125 16.53125 -12.95117188 14.640625 C-14.66054853 12.35863886 -15.07519346 11.34363152 -15.03125 8.53125 C-15.04671875 7.54125 -15.04671875 7.54125 -15.0625 6.53125 C-13.07733233 -0.9423224 -6.32474275 -0.05147481 0 0 Z " fill="#0F5351" transform="translate(261.53125,1031.46875)"/>
<path d="M0 0 C3.80873729 3.94007306 4.12638311 7.93015861 4.11352539 13.22753906 C4.11344986 14.26831604 4.11337433 15.30909302 4.11329651 16.38140869 C4.10813522 17.49820007 4.10297394 18.61499146 4.09765625 19.765625 C4.0962413 20.91415955 4.09482635 22.06269409 4.09336853 23.24603271 C4.08777143 26.91404831 4.07521944 30.58200285 4.0625 34.25 C4.05748463 36.73697829 4.05292178 39.22395753 4.04882812 41.7109375 C4.03780295 47.8073125 4.02106769 53.90365189 4 60 C4.60996826 59.97381592 5.21993652 59.94763184 5.84838867 59.9206543 C8.62782758 59.81634281 11.40685439 59.75157018 14.1875 59.6875 C15.14720703 59.64560547 16.10691406 59.60371094 17.09570312 59.56054688 C24.2425951 59.43689822 24.2425951 59.43689822 28.13671875 62.33203125 C30 65 30 65 30.625 68 C29.77358197 72.08680655 28.24280188 73.40823145 25 76 C22.20715648 76.50061116 20.03372951 76.70418481 17.25 76.6640625 C16.14640137 76.67123795 16.14640137 76.67123795 15.02050781 76.67855835 C13.47068127 76.6819488 11.92078239 76.67280592 10.37109375 76.65185547 C8.00618214 76.62507002 5.64601498 76.65162417 3.28125 76.68359375 C1.77082292 76.68028949 0.26039877 76.6738829 -1.25 76.6640625 C-2.3033252 76.67924423 -2.3033252 76.67924423 -3.37792969 76.69473267 C-7.27653258 76.60222124 -8.87784347 76.10102819 -11.921875 73.58349609 C-15.00595176 69.74941476 -15.13134888 67.85155852 -15.16113281 62.97729492 C-15.17074036 61.71225632 -15.1803479 60.44721771 -15.19024658 59.1438446 C-15.19509487 57.75605448 -15.19937362 56.36826227 -15.203125 54.98046875 C-15.20887714 53.56040952 -15.21463486 52.14035032 -15.22039795 50.72029114 C-15.23090925 47.74020017 -15.23675077 44.76013619 -15.24023438 41.7800293 C-15.24571334 37.96677077 -15.2697276 34.15387035 -15.29820633 30.34072399 C-15.31685967 27.40585805 -15.32203978 24.47107781 -15.32357025 21.53615761 C-15.32659226 20.13077147 -15.33460559 18.72538669 -15.34775543 17.32005882 C-15.36486702 15.35040764 -15.36108348 13.38060872 -15.35644531 11.41088867 C-15.36009094 10.29107101 -15.36373657 9.17125336 -15.36749268 8.01750183 C-14.95086903 4.59658299 -14.06699575 2.73660822 -12 0 C-7.41633129 -2.34276401 -4.60560647 -2.25162983 0 0 Z " fill="#0E5352" transform="translate(1097,1032)"/>
<path d="M0 0 C3.02756852 3.08980997 3.36929915 5.34372588 3.34057617 9.59472656 C3.34034958 10.71558655 3.34012299 11.83644653 3.33988953 12.99127197 C3.32440567 14.19555847 3.30892181 15.39984497 3.29296875 16.640625 C3.28872391 17.87794373 3.28447906 19.11526245 3.28010559 20.39007568 C3.26616254 23.67162541 3.23923086 26.95273056 3.20599365 30.23413086 C3.17524594 33.58573307 3.16184603 36.93735439 3.14648438 40.2890625 C3.11339996 46.85954877 3.06318845 53.42973802 3 60 C3.64026123 59.97381592 4.28052246 59.94763184 4.94018555 59.9206543 C7.85570502 59.81638719 10.77083198 59.75158247 13.6875 59.6875 C14.69490234 59.64560547 15.70230469 59.60371094 16.74023438 59.56054688 C24.23501193 59.43687068 24.23501193 59.43687068 28.16796875 62.33203125 C30 65 30 65 30.625 68 C29.77352889 72.0870613 28.24415505 73.40957016 25 76 C22.20537417 76.48864365 20.03309161 76.68145243 17.25 76.62890625 C16.51426758 76.63131821 15.77853516 76.63373016 15.02050781 76.63621521 C13.47064809 76.63523915 11.92075247 76.62190273 10.37109375 76.59692383 C8.00660087 76.56259583 5.64584586 76.57627685 3.28125 76.59570312 C1.77081752 76.58880421 0.26039463 76.57913139 -1.25 76.56640625 C-2.3033252 76.57384605 -2.3033252 76.57384605 -3.37792969 76.58143616 C-8.16253374 76.46735637 -10.67657241 75.44173099 -14 72 C-15.09536916 68.71389251 -15.15358822 66.23271063 -15.19287109 62.77197266 C-15.20893402 61.48698883 -15.22499695 60.202005 -15.24154663 58.87808228 C-15.25303265 57.47341575 -15.26364144 56.06874182 -15.2734375 54.6640625 C-15.27876118 53.95593792 -15.28408485 53.24781334 -15.28956985 52.51823044 C-15.31626857 48.77127923 -15.33565532 45.02436099 -15.35009766 41.27734375 C-15.36344565 38.17906222 -15.3913169 35.08143798 -15.43212891 31.98339844 C-15.48145598 28.2386374 -15.50621797 24.49447313 -15.51332474 20.74940109 C-15.52003399 19.32443091 -15.53524796 17.89947388 -15.55921555 16.47468948 C-15.5908768 14.47896651 -15.58790145 12.48278565 -15.58349609 10.48681641 C-15.59158295 9.35225006 -15.5996698 8.21768372 -15.60800171 7.04873657 C-14.80642648 3.0293536 -13.13541458 1.55120364 -10 -1 C-5.9761071 -2.34129763 -3.92371185 -1.47139194 0 0 Z " fill="#0E5452" transform="translate(1167,1032)"/>
<path d="M0 0 C2.37075034 2.33708705 2.96121099 3.70211489 3.39440918 7.02891541 C3.40282837 8.21296463 3.41124756 9.39701385 3.41992188 10.61694336 C3.42839142 11.2727388 3.43686096 11.92853424 3.44558716 12.60420227 C3.4689352 14.76628148 3.46997994 16.92764815 3.46875 19.08984375 C3.47585291 20.59672835 3.4835521 22.10361024 3.49182129 23.61048889 C3.50526096 26.76701376 3.50683727 29.92328853 3.50097656 33.07983398 C3.49508044 37.11979894 3.52566885 41.15856213 3.56609344 45.19829464 C3.59197585 48.30992569 3.59484746 51.42126755 3.59120178 54.53299141 C3.59289253 56.02212101 3.60253087 57.51126402 3.62034607 59.00028801 C3.64255007 61.08555807 3.63283181 63.1683985 3.61523438 65.25366211 C3.61728882 66.43850693 3.61934326 67.62335175 3.62145996 68.84410095 C2.81913976 72.9184448 1.17016119 74.41063327 -2 77 C-5.02648335 77.90738141 -6.7496807 77.46433133 -10 77 C-12.43119623 75.12984906 -13.64069173 73.71861655 -15 71 C-15.11734084 68.90293091 -15.16980016 66.80212699 -15.19287109 64.7019043 C-15.20104858 64.05615448 -15.20922607 63.41040466 -15.21765137 62.74508667 C-15.24249426 60.60480679 -15.2590188 58.46459321 -15.2734375 56.32421875 C-15.27876118 55.59311197 -15.28408485 54.8620052 -15.28956985 54.10874367 C-15.3162973 50.23860345 -15.33567298 46.36849543 -15.35009766 42.49829102 C-15.36674045 38.50320748 -15.4115148 34.50894972 -15.4624691 30.51417828 C-15.49614614 27.4403439 -15.50767547 24.36670539 -15.51332474 21.29270363 C-15.52003661 19.82028712 -15.53525738 18.34788347 -15.55921555 16.87564659 C-15.59088279 14.81184247 -15.59090361 12.75026316 -15.58349609 10.6862793 C-15.59158295 9.51316696 -15.5996698 8.34005463 -15.60800171 7.13139343 C-14.81543668 3.04944285 -13.18928708 1.58004069 -10 -1 C-5.9761071 -2.34129763 -3.92371185 -1.47139194 0 0 Z " fill="#0E5452" transform="translate(215,1032)"/>
</svg>
